<svg xmlns="http://www.w3.org/2000/svg" width="320" height="80" viewBox="0 0 320 80">
  <path d="M0,18 L12,12 L22,20 L30,10 L40,22 L48,14 L58,24 L65,16 L74,28 L82,18 L90,30 L98,20 L106,34 L115,24 L123,38 L130,26 L140,40 L148,30 L156,44 L164,32 L172,46 L180,34 L190,50 L198,36 L206,52 L215,40 L224,55 L232,42 L242,58 L250,44 L260,60 L270,48 L280,64 L290,52 L304,66 L320,72 L320,80 L0,80 Z"
        fill="#dc2626" fill-opacity="0.05"/>
  <path d="M0,18 L12,12 L22,20 L30,10 L40,22 L48,14 L58,24 L65,16 L74,28 L82,18 L90,30 L98,20 L106,34 L115,24 L123,38 L130,26 L140,40 L148,30 L156,44 L164,32 L172,46 L180,34 L190,50 L198,36 L206,52 L215,40 L224,55 L232,42 L242,58 L250,44 L260,60 L270,48 L280,64 L290,52 L304,66 L320,72"
        fill="none" stroke="#dc2626" stroke-width="1.2" stroke-opacity="0.22" stroke-linejoin="round"/>
  <text x="0" y="62" font-family="'Courier New', Courier, monospace">
    <tspan font-size="32" font-weight="400" fill="#8c959f">sub</tspan><tspan font-size="52" font-weight="700" fill="#1f2328">prime</tspan><tspan font-size="30" fill="#bf8700" dy="-22" dx="3">′</tspan>
  </text>
</svg>
