<svg xmlns="http://www.w3.org/2000/svg" width="320" height="80" viewBox="0 0 320 80">
  <!-- downward trend backdrop -->
  <path d="M0,12 L25,8 L45,18 L65,14 L90,22 L110,16 L135,28 L155,22 L175,36 L195,29 L215,42 L235,35 L255,50 L275,44 L295,56 L320,68 L320,80 L0,80 Z"
        fill="#dc2626" fill-opacity="0.06"/>
  <path d="M0,12 L25,8 L45,18 L65,14 L90,22 L110,16 L135,28 L155,22 L175,36 L195,29 L215,42 L235,35 L255,50 L275,44 L295,56 L320,68"
        fill="none" stroke="#dc2626" stroke-width="1.5" stroke-opacity="0.22" stroke-linejoin="round"/>
  <!-- wordmark -->
  <text x="0" y="62" font-family="'Courier New', Courier, monospace">
    <tspan font-size="32" font-weight="400" fill="#8c959f">sub</tspan><tspan font-size="52" font-weight="700" fill="#1f2328">prime</tspan><tspan font-size="30" fill="#bf8700" dy="-22" dx="3">′</tspan>
  </text>
</svg>
